# Blender v2.82 (sub 7) OBJ File: 'Flashlight.blend'
# www.blender.org
mtllib Flashlight.mtl
o Cylinder
v -0.013836 0.334155 -0.438083
v -0.013835 0.336553 0.923847
v 0.143039 0.292121 -0.437923
v 0.143039 0.294519 0.924007
v 0.257880 0.177282 -0.437484
v 0.257880 0.179679 0.924446
v 0.299914 0.020408 -0.436885
v 0.299914 0.022805 0.925046
v 0.257880 -0.136466 -0.436285
v 0.257880 -0.134068 0.925645
v 0.143039 -0.251305 -0.435846
v 0.143040 -0.248908 0.926084
v -0.013835 -0.293340 -0.435686
v -0.013835 -0.290942 0.926244
v -0.170710 -0.251306 -0.435846
v -0.170710 -0.248908 0.926084
v -0.285551 -0.136466 -0.436285
v -0.285551 -0.134069 0.925645
v -0.327585 0.020407 -0.436884
v -0.327585 0.022805 0.925046
v -0.285551 0.177281 -0.437484
v -0.285551 0.179679 0.924446
v -0.170711 0.292121 -0.437923
v -0.170711 0.294519 0.924008
v -0.013836 0.697742 -1.056582
v 0.326013 0.606681 -1.056234
v 0.574799 0.357896 -1.055284
v 0.665861 0.018050 -1.053985
v 0.574799 -0.321797 -1.052687
v 0.326013 -0.570581 -1.051736
v -0.013836 -0.661643 -1.051388
v -0.353684 -0.570582 -1.051736
v -0.602471 -0.321797 -1.052687
v -0.693534 0.018049 -1.053985
v -0.602472 0.357895 -1.055284
v -0.353685 0.606680 -1.056234
v -0.013836 0.562934 -1.178481
v 0.258842 0.489871 -1.178202
v 0.458456 0.290258 -1.177439
v 0.531520 0.017582 -1.176397
v 0.458456 -0.255094 -1.175356
v 0.258842 -0.454707 -1.174593
v -0.013836 -0.527770 -1.174314
v -0.286514 -0.454707 -1.174593
v -0.486128 -0.255095 -1.175355
v -0.559192 0.017581 -1.176397
v -0.486129 0.290257 -1.177439
v -0.286515 0.489870 -1.178202
v -0.013836 0.697274 -1.178994
v 0.326013 0.606213 -1.178647
v 0.574799 0.357428 -1.177696
v 0.665861 0.017582 -1.176398
v 0.574799 -0.322264 -1.175099
v 0.326013 -0.571049 -1.174148
v -0.013836 -0.662111 -1.173800
v -0.353684 -0.571050 -1.174148
v -0.602471 -0.322265 -1.175099
v -0.693534 0.017581 -1.176397
v -0.602472 0.357428 -1.177696
v -0.353685 0.606212 -1.178646
v -0.013836 0.563409 -1.054030
v 0.258842 0.490346 -1.053751
v 0.458456 0.290734 -1.052989
v 0.531520 0.018057 -1.051947
v 0.458456 -0.254619 -1.050905
v 0.258842 -0.454232 -1.050142
v -0.013836 -0.527295 -1.049863
v -0.286514 -0.454232 -1.050142
v -0.486128 -0.254619 -1.050905
v -0.559192 0.018057 -1.051947
v -0.486128 0.290733 -1.052988
v -0.286515 0.490346 -1.053751
vt 1.000000 0.500000
vt 1.000000 1.000000
vt 0.916667 1.000000
vt 0.916667 0.500000
vt 0.833333 1.000000
vt 0.833333 0.500000
vt 0.750000 1.000000
vt 0.750000 0.500000
vt 0.666667 1.000000
vt 0.666667 0.500000
vt 0.583333 1.000000
vt 0.583333 0.500000
vt 0.500000 1.000000
vt 0.500000 0.500000
vt 0.416667 1.000000
vt 0.416667 0.500000
vt 0.333333 1.000000
vt 0.333333 0.500000
vt 0.250000 1.000000
vt 0.250000 0.500000
vt 0.166667 1.000000
vt 0.166667 0.500000
vt 0.370000 0.457846
vt 0.250000 0.490000
vt 0.130000 0.457846
vt 0.042154 0.370000
vt 0.010000 0.250000
vt 0.042154 0.130000
vt 0.130000 0.042154
vt 0.250000 0.010000
vt 0.370000 0.042154
vt 0.457846 0.130000
vt 0.490000 0.250000
vt 0.457846 0.370000
vt 0.083333 1.000000
vt 0.083333 0.500000
vt 0.000000 1.000000
vt 0.000000 0.500000
vt 0.416667 0.500000
vt 0.500000 0.500000
vt 1.000000 0.500000
vt 0.916667 0.500000
vt 0.916667 0.500000
vt 1.000000 0.500000
vt 0.583333 0.500000
vt 0.666667 0.500000
vt 0.750000 0.500000
vt 0.000000 0.500000
vt 0.083333 0.500000
vt 0.833333 0.500000
vt 0.166667 0.500000
vt 0.250000 0.500000
vt 0.333333 0.500000
vt 0.942564 0.250000
vt 0.916766 0.153718
vt 0.916766 0.153718
vt 0.942564 0.250000
vt 0.333333 0.500000
vt 0.416667 0.500000
vt 0.583333 0.500000
vt 0.666667 0.500000
vt 0.000000 0.500000
vt 0.083333 0.500000
vt 0.833333 0.500000
vt 0.250000 0.500000
vt 0.500000 0.500000
vt 0.750000 0.500000
vt 0.166667 0.500000
vt 0.846282 0.416766
vt 0.750000 0.442564
vt 0.750000 0.490000
vt 0.870000 0.457846
vt 0.916766 0.346282
vt 0.957846 0.370000
vt 0.990000 0.250000
vt 0.957846 0.130000
vt 0.846282 0.083234
vt 0.870000 0.042154
vt 0.750000 0.057436
vt 0.750000 0.010000
vt 0.653718 0.083234
vt 0.630000 0.042154
vt 0.583235 0.153718
vt 0.542154 0.130000
vt 0.557436 0.250000
vt 0.510000 0.250000
vt 0.583234 0.346282
vt 0.542154 0.370000
vt 0.653718 0.416766
vt 0.630000 0.457846
vt 0.653718 0.416766
vt 0.583234 0.346282
vt 0.846282 0.416766
vt 0.750000 0.442564
vt 0.583235 0.153718
vt 0.653718 0.083234
vt 0.846282 0.083234
vt 0.916766 0.346282
vt 0.557436 0.250000
vt 0.750000 0.057436
vn 0.2588 0.9659 -0.0017
vn 0.7071 0.7071 -0.0012
vn 0.9659 0.2588 -0.0005
vn 0.9659 -0.2588 0.0005
vn 0.7071 -0.7071 0.0012
vn 0.2588 -0.9659 0.0017
vn -0.2588 -0.9659 0.0017
vn -0.7071 -0.7071 0.0012
vn -0.9659 -0.2588 0.0005
vn -0.9659 0.2588 -0.0005
vn 0.0000 0.0038 1.0000
vn -0.7071 0.7071 -0.0012
vn -0.2588 0.9659 -0.0017
vn -0.2246 -0.8363 0.5002
vn 0.2588 0.9659 -0.0037
vn 0.2246 -0.8363 0.5002
vn 0.6136 -0.6117 0.4994
vn 0.8382 -0.2227 0.4979
vn -0.2246 0.8401 0.4938
vn 0.2246 0.8401 0.4938
vn 0.8382 0.2265 0.4962
vn -0.6136 0.6155 0.4947
vn 0.6136 0.6155 0.4947
vn -0.8382 0.2265 0.4962
vn -0.8382 -0.2227 0.4979
vn -0.6136 -0.6117 0.4994
vn -0.9659 0.2588 -0.0010
vn -0.7071 -0.7071 0.0027
vn 0.7071 -0.7071 0.0027
vn -0.2588 0.9659 -0.0037
vn 0.7071 0.7071 -0.0027
vn -0.9659 -0.2588 0.0010
vn 0.2588 -0.9659 0.0037
vn 0.9659 0.2588 -0.0010
vn -0.2588 -0.9659 0.0037
vn 0.9659 -0.2588 0.0010
vn -0.7071 0.7071 -0.0027
vn -0.0000 -0.0038 -1.0000
usemtl Dark_grey
s off
f 1/1/1 2/2/1 4/3/1 3/4/1
f 3/4/2 4/3/2 6/5/2 5/6/2
f 5/6/3 6/5/3 8/7/3 7/8/3
f 7/8/4 8/7/4 10/9/4 9/10/4
f 9/10/5 10/9/5 12/11/5 11/12/5
f 11/12/6 12/11/6 14/13/6 13/14/6
f 13/14/7 14/13/7 16/15/7 15/16/7
f 15/16/8 16/15/8 18/17/8 17/18/8
f 17/18/9 18/17/9 20/19/9 19/20/9
f 19/20/10 20/19/10 22/21/10 21/22/10
f 4/23/11 2/24/11 24/25/11 22/26/11 20/27/11 18/28/11 16/29/11 14/30/11 12/31/11 10/32/11 8/33/11 6/34/11
f 21/22/12 22/21/12 24/35/12 23/36/12
f 23/36/13 24/35/13 2/37/13 1/38/13
f 13/14/14 15/16/14 32/39/14 31/40/14
f 25/41/15 26/42/15 50/43/15 49/44/15
f 11/12/16 13/14/16 31/40/16 30/45/16
f 9/10/17 11/12/17 30/45/17 29/46/17
f 7/8/18 9/10/18 29/46/18 28/47/18
f 23/36/19 1/38/19 25/48/19 36/49/19
f 1/1/20 3/4/20 26/42/20 25/41/20
f 5/6/21 7/8/21 28/47/21 27/50/21
f 21/22/22 23/36/22 36/49/22 35/51/22
f 3/4/23 5/6/23 27/50/23 26/42/23
f 19/20/24 21/22/24 35/51/24 34/52/24
f 17/18/25 19/20/25 34/52/25 33/53/25
f 15/16/26 17/18/26 33/53/26 32/39/26
f 40/54/27 41/55/27 65/56/27 64/57/27
f 32/39/28 33/53/28 57/58/28 56/59/28
f 29/46/29 30/45/29 54/60/29 53/61/29
f 36/49/30 25/48/30 49/62/30 60/63/30
f 26/42/31 27/50/31 51/64/31 50/43/31
f 33/53/32 34/52/32 58/65/32 57/58/32
f 30/45/33 31/40/33 55/66/33 54/60/33
f 27/50/34 28/47/34 52/67/34 51/64/34
f 34/52/27 35/51/27 59/68/27 58/65/27
f 31/40/35 32/39/35 56/59/35 55/66/35
f 28/47/36 29/46/36 53/61/36 52/67/36
f 35/51/37 36/49/37 60/63/37 59/68/37
f 38/69/38 37/70/38 49/71/38 50/72/38
f 39/73/38 38/69/38 50/72/38 51/74/38
f 40/54/38 39/73/38 51/74/38 52/75/38
f 41/55/38 40/54/38 52/75/38 53/76/38
f 42/77/38 41/55/38 53/76/38 54/78/38
f 43/79/38 42/77/38 54/78/38 55/80/38
f 44/81/38 43/79/38 55/80/38 56/82/38
f 45/83/38 44/81/38 56/82/38 57/84/38
f 46/85/38 45/83/38 57/84/38 58/86/38
f 47/87/38 46/85/38 58/86/38 59/88/38
f 48/89/38 47/87/38 59/88/38 60/90/38
f 37/70/38 48/89/38 60/90/38 49/71/38
f 47/87/29 48/89/29 72/91/29 71/92/29
f 37/70/35 38/69/35 62/93/35 61/94/35
f 44/81/31 45/83/31 69/95/31 68/96/31
f 41/55/37 42/77/37 66/97/37 65/56/37
f 48/89/33 37/70/33 61/94/33 72/91/33
f 38/69/28 39/73/28 63/98/28 62/93/28
f 45/83/34 46/85/34 70/99/34 69/95/34
f 42/77/30 43/79/30 67/100/30 66/97/30
f 39/73/32 40/54/32 64/57/32 63/98/32
f 46/85/36 47/87/36 71/92/36 70/99/36
f 43/79/15 44/81/15 68/96/15 67/100/15
usemtl Light
f 61/94/38 62/93/38 63/98/38 64/57/38 65/56/38 66/97/38 67/100/38 68/96/38 69/95/38 70/99/38 71/92/38 72/91/38
