# Blender v2.82 (sub 7) OBJ File: ''
# www.blender.org
mtllib untitled.mtl
o Cone
v 0.000000 -1.000000 -0.000000
v 0.000000 1.000000 0.796011
v 0.000000 0.818251 0.909125
v 0.155294 1.000000 0.780716
v 0.177362 0.818251 0.891657
v 0.304620 1.000000 0.735418
v 0.347907 0.818251 0.839922
v 0.505083 0.818251 0.755910
v 0.442240 1.000000 0.661859
v 0.642849 0.818251 0.642849
v 0.562865 1.000000 0.562865
v 0.755910 0.818251 0.505083
v 0.661859 1.000000 0.442240
v 0.839922 0.818251 0.347907
v 0.735418 1.000000 0.304620
v 0.891657 0.818251 0.177362
v 0.780716 1.000000 0.155294
v 0.909125 0.818251 0.000000
v 0.796011 1.000000 0.000000
v 0.891657 0.818251 -0.177361
v 0.780716 1.000000 -0.155294
v 0.839922 0.818251 -0.347907
v 0.735418 1.000000 -0.304620
v 0.755910 0.818251 -0.505083
v 0.661859 1.000000 -0.442240
v 0.642849 0.818251 -0.642849
v 0.562865 1.000000 -0.562865
v 0.505083 0.818251 -0.755910
v 0.442240 1.000000 -0.661859
v 0.347907 0.818251 -0.839922
v 0.304620 1.000000 -0.735418
v 0.177361 0.818251 -0.891657
v 0.155294 1.000000 -0.780716
v -0.000000 0.818251 -0.909125
v -0.000000 1.000000 -0.796011
v -0.155294 1.000000 -0.780716
v -0.177362 0.818251 -0.891657
v -0.304621 1.000000 -0.735418
v -0.347908 0.818251 -0.839922
v -0.442241 1.000000 -0.661859
v -0.505083 0.818251 -0.755910
v -0.562865 1.000000 -0.562864
v -0.642849 0.818251 -0.642848
v -0.661859 1.000000 -0.442239
v -0.755910 0.818251 -0.505082
v -0.735418 1.000000 -0.304620
v -0.839923 0.818251 -0.347906
v -0.780716 1.000000 -0.155293
v -0.891657 0.818251 -0.177361
v -0.796011 1.000000 0.000001
v -0.909125 0.818251 0.000001
v -0.780716 1.000000 0.155295
v -0.891657 0.818251 0.177363
v -0.735418 1.000000 0.304621
v -0.839922 0.818251 0.347908
v -0.661858 1.000000 0.442241
v -0.755909 0.818251 0.505084
v -0.562864 1.000000 0.562866
v -0.642848 0.818251 0.642850
v -0.442239 1.000000 0.661860
v -0.505082 0.818251 0.755911
v -0.304619 1.000000 0.735419
v -0.347906 0.818251 0.839923
v -0.155293 1.000000 0.780716
v -0.177360 0.818251 0.891657
vt 0.207434 0.463998
vt 0.250000 0.250000
vt 0.250000 0.468190
vt 0.333498 0.451581
vt 0.371220 0.431418
vt 0.404284 0.404284
vt 0.431418 0.371220
vt 0.451581 0.333498
vt 0.463998 0.292567
vt 0.468190 0.250000
vt 0.463998 0.207433
vt 0.451581 0.166502
vt 0.431418 0.128780
vt 0.404284 0.095716
vt 0.371220 0.068582
vt 0.333498 0.048419
vt 0.292567 0.036002
vt 0.250000 0.031810
vt 0.207433 0.036002
vt 0.166502 0.048419
vt 0.128780 0.068582
vt 0.095716 0.095716
vt 0.068582 0.128780
vt 0.048419 0.166502
vt 0.036002 0.207433
vt 0.031810 0.250000
vt 0.036002 0.292567
vt 0.048419 0.333498
vt 0.068582 0.371220
vt 0.095717 0.404284
vt 0.128780 0.431419
vt 0.166503 0.451581
vt 0.292567 0.463998
vt 0.292046 0.485859
vt 0.254776 0.489530
vt 0.337252 0.473124
vt 0.301414 0.483995
vt 0.379105 0.451815
vt 0.346076 0.469469
vt 0.415996 0.422750
vt 0.387046 0.446508
vt 0.446508 0.387046
vt 0.422750 0.415996
vt 0.469469 0.346076
vt 0.451815 0.379105
vt 0.483995 0.301414
vt 0.473124 0.337252
vt 0.489530 0.254776
vt 0.485859 0.292046
vt 0.485859 0.207954
vt 0.489530 0.245224
vt 0.473124 0.162748
vt 0.483995 0.198586
vt 0.451815 0.120895
vt 0.469469 0.153924
vt 0.422750 0.084004
vt 0.446508 0.112954
vt 0.387046 0.053492
vt 0.415996 0.077250
vt 0.346076 0.030531
vt 0.379105 0.048185
vt 0.301414 0.016005
vt 0.337252 0.026876
vt 0.254776 0.010470
vt 0.292046 0.014141
vt 0.207954 0.014141
vt 0.245224 0.010470
vt 0.162748 0.026876
vt 0.198586 0.016005
vt 0.120895 0.048185
vt 0.153924 0.030531
vt 0.084004 0.077250
vt 0.112954 0.053492
vt 0.053491 0.112954
vt 0.077250 0.084004
vt 0.030531 0.153924
vt 0.048185 0.120895
vt 0.016004 0.198586
vt 0.026876 0.162748
vt 0.010470 0.245225
vt 0.014141 0.207954
vt 0.014141 0.292046
vt 0.010470 0.254776
vt 0.026876 0.337252
vt 0.016005 0.301414
vt 0.048185 0.379105
vt 0.030531 0.346076
vt 0.077250 0.415996
vt 0.053492 0.387046
vt 0.112954 0.446509
vt 0.084004 0.422750
vt 0.153924 0.469469
vt 0.120895 0.451815
vt 0.198587 0.483996
vt 0.162748 0.473124
vt 0.245225 0.489530
vt 0.207954 0.485859
vt 0.750000 0.441043
vt 0.787270 0.437372
vt 0.823109 0.426501
vt 0.856137 0.408846
vt 0.885088 0.385088
vt 0.908846 0.356138
vt 0.926500 0.323109
vt 0.937372 0.287271
vt 0.941043 0.250000
vt 0.937372 0.212729
vt 0.926500 0.176891
vt 0.908846 0.143863
vt 0.885087 0.114912
vt 0.856138 0.091154
vt 0.823109 0.073500
vt 0.787271 0.062628
vt 0.750000 0.058957
vt 0.712729 0.062628
vt 0.676891 0.073500
vt 0.643862 0.091154
vt 0.614912 0.114912
vt 0.591154 0.143863
vt 0.573500 0.176891
vt 0.562628 0.212729
vt 0.558957 0.250000
vt 0.562628 0.287271
vt 0.573500 0.323109
vt 0.591154 0.356138
vt 0.614913 0.385088
vt 0.643863 0.408846
vt 0.676891 0.426501
vt 0.712730 0.437372
vn -0.0878 -0.4455 0.8910
vn 0.4220 -0.4455 0.7896
vn 0.5680 -0.4455 0.6921
vn 0.6921 -0.4455 0.5680
vn 0.7896 -0.4455 0.4220
vn 0.8567 -0.4455 0.2599
vn 0.8910 -0.4455 0.0878
vn 0.8910 -0.4455 -0.0878
vn 0.8567 -0.4455 -0.2599
vn 0.7896 -0.4455 -0.4220
vn 0.6921 -0.4455 -0.5680
vn 0.5680 -0.4455 -0.6921
vn 0.4220 -0.4455 -0.7896
vn 0.2599 -0.4455 -0.8567
vn 0.0878 -0.4455 -0.8910
vn -0.0878 -0.4455 -0.8910
vn -0.2599 -0.4455 -0.8567
vn -0.4220 -0.4455 -0.7896
vn -0.5680 -0.4455 -0.6921
vn -0.6921 -0.4455 -0.5680
vn -0.7896 -0.4455 -0.4220
vn -0.8567 -0.4455 -0.2599
vn -0.8910 -0.4455 -0.0878
vn -0.8910 -0.4455 0.0878
vn -0.8567 -0.4455 0.2599
vn -0.7896 -0.4455 0.4220
vn -0.6921 -0.4455 0.5680
vn -0.5680 -0.4455 0.6921
vn -0.4220 -0.4455 0.7896
vn -0.2599 -0.4455 0.8567
vn 0.2599 -0.4455 0.8567
vn 0.0878 -0.4455 0.8910
vn 0.0833 0.5266 0.8460
vn 0.2468 0.5266 0.8135
vn 0.4008 0.5266 0.7498
vn 0.5393 0.5266 0.6572
vn 0.6572 0.5266 0.5393
vn 0.7498 0.5266 0.4008
vn 0.8135 0.5266 0.2468
vn 0.8460 0.5266 0.0833
vn 0.8461 0.5266 -0.0833
vn 0.8135 0.5266 -0.2468
vn 0.7498 0.5266 -0.4008
vn 0.6572 0.5266 -0.5393
vn 0.5393 0.5266 -0.6572
vn 0.4008 0.5266 -0.7498
vn 0.2468 0.5266 -0.8135
vn 0.0833 0.5266 -0.8460
vn -0.0833 0.5266 -0.8460
vn -0.2468 0.5266 -0.8135
vn -0.4008 0.5266 -0.7498
vn -0.5393 0.5266 -0.6572
vn -0.6572 0.5266 -0.5393
vn -0.7498 0.5266 -0.4008
vn -0.8135 0.5266 -0.2468
vn -0.8460 0.5266 -0.0833
vn -0.8460 0.5266 0.0833
vn -0.8135 0.5266 0.2468
vn -0.7498 0.5266 0.4008
vn -0.6572 0.5266 0.5393
vn -0.5393 0.5266 0.6572
vn -0.4008 0.5266 0.7498
vn -0.2468 0.5266 0.8135
vn -0.0833 0.5266 0.8460
vn 0.0000 1.0000 0.0000
usemtl None
s off
f 65/1/1 1/2/1 3/3/1
f 7/4/2 1/2/2 8/5/2
f 8/5/3 1/2/3 10/6/3
f 10/6/4 1/2/4 12/7/4
f 12/7/5 1/2/5 14/8/5
f 14/8/6 1/2/6 16/9/6
f 16/9/7 1/2/7 18/10/7
f 18/10/8 1/2/8 20/11/8
f 20/11/9 1/2/9 22/12/9
f 22/12/10 1/2/10 24/13/10
f 24/13/11 1/2/11 26/14/11
f 26/14/12 1/2/12 28/15/12
f 28/15/13 1/2/13 30/16/13
f 30/16/14 1/2/14 32/17/14
f 32/17/15 1/2/15 34/18/15
f 34/18/16 1/2/16 37/19/16
f 37/19/17 1/2/17 39/20/17
f 39/20/18 1/2/18 41/21/18
f 41/21/19 1/2/19 43/22/19
f 43/22/20 1/2/20 45/23/20
f 45/23/21 1/2/21 47/24/21
f 47/24/22 1/2/22 49/25/22
f 49/25/23 1/2/23 51/26/23
f 51/26/24 1/2/24 53/27/24
f 53/27/25 1/2/25 55/28/25
f 55/28/26 1/2/26 57/29/26
f 57/29/27 1/2/27 59/30/27
f 59/30/28 1/2/28 61/31/28
f 61/31/29 1/2/29 63/32/29
f 63/32/30 1/2/30 65/1/30
f 5/33/31 1/2/31 7/4/31
f 3/3/32 1/2/32 5/33/32
f 3/3/33 5/33/33 4/34/33 2/35/33
f 5/33/34 7/4/34 6/36/34 4/37/34
f 7/4/35 8/5/35 9/38/35 6/39/35
f 8/5/36 10/6/36 11/40/36 9/41/36
f 10/6/37 12/7/37 13/42/37 11/43/37
f 12/7/38 14/8/38 15/44/38 13/45/38
f 14/8/39 16/9/39 17/46/39 15/47/39
f 16/9/40 18/10/40 19/48/40 17/49/40
f 18/10/41 20/11/41 21/50/41 19/51/41
f 20/11/42 22/12/42 23/52/42 21/53/42
f 22/12/43 24/13/43 25/54/43 23/55/43
f 24/13/44 26/14/44 27/56/44 25/57/44
f 26/14/45 28/15/45 29/58/45 27/59/45
f 28/15/46 30/16/46 31/60/46 29/61/46
f 30/16/47 32/17/47 33/62/47 31/63/47
f 32/17/48 34/18/48 35/64/48 33/65/48
f 34/18/49 37/19/49 36/66/49 35/67/49
f 37/19/50 39/20/50 38/68/50 36/69/50
f 39/20/51 41/21/51 40/70/51 38/71/51
f 41/21/52 43/22/52 42/72/52 40/73/52
f 43/22/53 45/23/53 44/74/53 42/75/53
f 45/23/54 47/24/54 46/76/54 44/77/54
f 47/24/55 49/25/55 48/78/55 46/79/55
f 49/25/56 51/26/56 50/80/56 48/81/56
f 51/26/57 53/27/57 52/82/57 50/83/57
f 53/27/58 55/28/58 54/84/58 52/85/58
f 55/28/59 57/29/59 56/86/59 54/87/59
f 57/29/60 59/30/60 58/88/60 56/89/60
f 59/30/61 61/31/61 60/90/61 58/91/61
f 61/31/62 63/32/62 62/92/62 60/93/62
f 63/32/63 65/1/63 64/94/63 62/95/63
f 65/1/64 3/3/64 2/96/64 64/97/64
f 2/98/65 4/99/65 6/100/65 9/101/65 11/102/65 13/103/65 15/104/65 17/105/65 19/106/65 21/107/65 23/108/65 25/109/65 27/110/65 29/111/65 31/112/65 33/113/65 35/114/65 36/115/65 38/116/65 40/117/65 42/118/65 44/119/65 46/120/65 48/121/65 50/122/65 52/123/65 54/124/65 56/125/65 58/126/65 60/127/65 62/128/65 64/129/65
